<svg width="30" height="38" viewBox="0 0 30 38" fill="none" xmlns="http://www.w3.org/2000/svg">
<g clip-path="url(#clip0_4854_4113)">
<path d="M25.0531 20.0633C25.0084 15.4032 28.8635 13.1402 29.0424 13.0328C26.8599 9.84859 23.4699 9.41031 22.2803 9.37453C19.436 9.07936 16.681 11.074 15.232 11.074C13.783 11.074 11.529 9.40136 9.1229 9.45503C6.02809 9.49975 3.13006 11.2887 1.54688 14.0704C-1.72683 19.7413 0.715033 28.0686 3.85457 32.6572C5.41986 34.9023 7.25349 37.4067 9.65958 37.3173C12.012 37.2189 12.8886 35.8235 15.724 35.8235C18.5594 35.8235 19.3555 37.3173 21.8063 37.2636C24.3286 37.2278 25.9118 35.0096 27.4324 32.7466C29.2481 30.1795 29.9726 27.6393 29.9995 27.5141C29.9369 27.4962 25.1068 25.6536 25.0621 20.0633H25.0531Z" fill="#222222"/>
<path d="M20.4289 6.36938C21.6901 4.79514 22.5577 2.6395 22.3162 0.457031C20.4915 0.537532 18.2017 1.71821 16.8869 3.26562C15.7241 4.62519 14.6775 6.86132 14.9459 8.95435C17.0031 9.10641 19.1051 7.91678 20.4289 6.36043V6.36938Z" fill="#222222"/>
</g>
<defs>
<clipPath id="clip0_4854_4113">
<rect width="30" height="36.8694" fill="white" transform="translate(-0.000488281 0.457031)"/>
</clipPath>
</defs>
</svg>
