<svg width="181" height="55" viewBox="0 0 181 55" fill="none" xmlns="http://www.w3.org/2000/svg">
<path d="M65.9456 54.5685V0.597656L50.0852 0.597656V54.5685H65.9456Z" fill="#55F30F"/>
<path d="M180.817 13.2844V0.59375H162.176H146.316V54.5646H156.727H180.817V41.8778H162.176V33.9264H180.817V21.2358H162.176V13.2844H180.817Z" fill="#55F30F"/>
<path d="M134.084 0.59375H110.538L106.096 25.7745L101.658 0.59375H78.112L72.4396 54.5646H88.3886L92.0867 19.3771L98.2913 54.5646H113.905L120.109 19.3771L123.807 54.5646H139.757L134.084 0.59375Z" fill="#55F30F"/>
<path d="M46.8385 2.94215V0.59375H4.37827V15.76H21.1256L0.109497 52.1622V52.1699V54.5646H42.5697V39.3559H25.8224H25.8185L39.4385 15.76L46.8385 2.94215Z" fill="#55F30F"/>
</svg>
