<svg width="100" height="33" viewBox="0 0 100 33" fill="none" xmlns="http://www.w3.org/2000/svg">
<path d="M36.4326 32.3378V0.897461L27.6558 0.897461V32.3378H36.4326Z" fill="#222222"/>
<path d="M99.9999 8.28834V0.895508H89.6845H80.9077V32.3358H86.6693H99.9999V24.9452H89.6845V20.3132H99.9999V12.9204H89.6845V8.28834H99.9999Z" fill="#222222"/>
<path d="M74.1393 0.895508H61.1095L58.6513 15.5644L56.1951 0.895508H43.1654L40.0264 32.3358H48.8523L50.8987 11.8376L54.3322 32.3358H62.9725L66.4059 11.8376L68.4524 32.3358H77.2783L74.1393 0.895508Z" fill="#222222"/>
<path d="M25.8589 2.26355V0.895508H2.36225V9.73051H11.6299L0 30.9363V30.9408V32.3358H23.4966V23.4761H14.229H14.2269L21.7639 9.73051L25.8589 2.26355Z" fill="#222222"/>
</svg>
